<svg width="570" height="176" viewBox="0 0 570 176" fill="none" xmlns="http://www.w3.org/2000/svg">
<g clip-path="url(#clip0_1031_9308)">
<path d="M62.31 174.944C47.7546 174.944 36.879 171.504 29.6831 164.624C22.6507 157.58 19.1346 147.588 19.1346 134.648V10.8111H57.4037V125.065C57.4037 129.979 58.3031 133.583 60.1021 135.876C61.9011 138.169 64.6813 139.316 68.4428 139.316C69.9147 139.316 71.6319 138.989 73.5944 138.333C75.557 137.514 77.3559 136.531 78.9914 135.385L92.2384 163.395C88.3133 166.672 83.5706 169.456 78.0101 171.75C72.6132 173.879 67.3798 174.944 62.31 174.944ZM0 81.3292V49.1415H85.3696V81.3292H0Z" fill="white"/>
<path d="M104.329 176V0H142.598V176H104.329Z" fill="white"/>
<path d="M187.989 94.8431C181.775 94.8431 176.46 92.6317 172.044 88.209C167.628 83.7862 165.421 78.4626 165.421 72.238C165.421 66.1772 167.628 60.9355 172.044 56.5127C176.46 52.09 181.775 49.8786 187.989 49.8786C194.041 49.8786 199.274 52.09 203.69 56.5127C208.105 60.9355 210.313 66.1772 210.313 72.238C210.313 78.4626 208.105 83.7862 203.69 88.209C199.274 92.6317 194.041 94.8431 187.989 94.8431ZM155.853 175.977L171.553 115.042H210.313L184.31 175.977H155.853Z" fill="white"/>
<path d="M319.575 176L317.858 149.144V0H356.127V176H319.575ZM283.023 174.944C271.575 174.944 261.681 172.405 253.34 167.327C245.163 162.085 238.785 154.632 234.205 144.967C229.79 135.303 227.582 123.837 227.582 110.568C227.582 97.1363 229.79 85.67 234.205 76.1693C238.785 66.5048 245.163 59.1336 253.34 54.0556C261.681 48.8139 271.575 46.193 283.023 46.193C293.163 46.193 301.667 48.8139 308.536 54.0556C315.568 59.1336 320.801 66.5048 324.236 76.1693C327.67 85.67 329.388 97.1363 329.388 110.568C329.388 123.837 327.67 135.303 324.236 144.967C320.801 154.632 315.568 162.085 308.536 167.327C301.667 172.405 293.163 174.944 283.023 174.944ZM293.081 139.562C297.824 139.562 302.076 138.333 305.837 135.876C309.599 133.419 312.543 130.061 314.669 125.802C316.795 121.379 317.858 116.302 317.858 110.568C317.858 104.835 316.795 99.8391 314.669 95.5802C312.543 91.1575 309.599 87.7176 305.837 85.2605C302.076 82.8034 297.742 81.5749 292.836 81.5749C287.929 81.5749 283.595 82.8034 279.834 85.2605C276.072 87.7176 273.047 91.1575 270.757 95.5802C268.631 99.8391 267.486 104.835 267.323 110.568C267.486 116.302 268.631 121.379 270.757 125.802C273.047 130.061 276.072 133.419 279.834 135.876C283.759 138.333 288.175 139.562 293.081 139.562Z" fill="white"/>
<path d="M490.763 176L530.995 49.1415H570L528.051 176H490.763ZM410.055 176L448.324 49.1415H480.951L443.418 176H410.055ZM405.884 176L364.181 49.1415H403.186L441.21 176H405.884ZM490.518 176L453.475 49.1415H486.102L524.126 176H490.518Z" fill="white"/>
</g>
<defs>
<clipPath id="clip0_1031_9308">
<rect width="570" height="176" fill="white"/>
</clipPath>
</defs>
</svg>
