<svg width="570" height="176" viewBox="0 0 570 176" fill="none" xmlns="http://www.w3.org/2000/svg">
<g clip-path="url(#clip0_1027_8967)">
<path d="M319.575 176L317.858 149.144V0H356.127V176H319.575ZM283.023 174.944C271.575 174.944 261.681 172.405 253.34 167.327C245.163 162.085 238.785 154.632 234.206 144.967C229.79 135.303 227.582 123.837 227.582 110.568C227.582 97.1363 229.79 85.67 234.206 76.1693C238.785 66.5048 245.163 59.1336 253.34 54.0556C261.681 48.8139 271.575 46.193 283.023 46.193C293.163 46.193 301.667 48.8139 308.536 54.0556C315.568 59.1336 320.802 66.5048 324.236 76.1693C327.67 85.67 329.388 97.1363 329.388 110.568C329.388 123.837 327.67 135.303 324.236 144.967C320.802 154.632 315.568 162.085 308.536 167.327C301.667 172.405 293.163 174.944 283.023 174.944ZM293.081 139.562C297.824 139.562 302.076 138.333 305.837 135.876C309.599 133.419 312.543 130.061 314.669 125.802C316.795 121.379 317.858 116.302 317.858 110.568C317.858 104.835 316.795 99.8391 314.669 95.5802C312.543 91.1575 309.599 87.7176 305.837 85.2605C302.076 82.8034 297.742 81.5749 292.836 81.5749C287.929 81.5749 283.596 82.8034 279.834 85.2605C276.073 87.7176 273.047 91.1575 270.757 95.5802C268.631 99.8391 267.487 104.835 267.323 110.568C267.487 116.302 268.631 121.379 270.757 125.802C273.047 130.061 276.073 133.419 279.834 135.876C283.759 138.333 288.175 139.562 293.081 139.562Z" fill="url(#paint0_linear_1027_8967)"/>
<path d="M319.575 176L317.858 149.144V0H356.127V176H319.575ZM283.023 174.944C271.575 174.944 261.681 172.405 253.34 167.327C245.163 162.085 238.785 154.632 234.206 144.967C229.79 135.303 227.582 123.837 227.582 110.568C227.582 97.1363 229.79 85.67 234.206 76.1693C238.785 66.5048 245.163 59.1336 253.34 54.0556C261.681 48.8139 271.575 46.193 283.023 46.193C293.163 46.193 301.667 48.8139 308.536 54.0556C315.568 59.1336 320.802 66.5048 324.236 76.1693C327.67 85.67 329.388 97.1363 329.388 110.568C329.388 123.837 327.67 135.303 324.236 144.967C320.802 154.632 315.568 162.085 308.536 167.327C301.667 172.405 293.163 174.944 283.023 174.944ZM293.081 139.562C297.824 139.562 302.076 138.333 305.837 135.876C309.599 133.419 312.543 130.061 314.669 125.802C316.795 121.379 317.858 116.302 317.858 110.568C317.858 104.835 316.795 99.8391 314.669 95.5802C312.543 91.1575 309.599 87.7176 305.837 85.2605C302.076 82.8034 297.742 81.5749 292.836 81.5749C287.929 81.5749 283.596 82.8034 279.834 85.2605C276.073 87.7176 273.047 91.1575 270.757 95.5802C268.631 99.8391 267.487 104.835 267.323 110.568C267.487 116.302 268.631 121.379 270.757 125.802C273.047 130.061 276.073 133.419 279.834 135.876C283.759 138.333 288.175 139.562 293.081 139.562Z" fill="black"/>
<path d="M62.31 174.943C47.7546 174.943 36.879 171.503 29.6831 164.623C22.6507 157.58 19.1346 147.588 19.1346 134.647V10.8105H57.4037V125.065C57.4037 129.979 58.3031 133.582 60.1021 135.876C61.9011 138.169 64.6813 139.316 68.4428 139.316C69.9147 139.316 71.6319 138.988 73.5944 138.333C75.557 137.514 77.3559 136.531 78.9914 135.384L92.2384 163.395C88.3133 166.671 83.5706 169.456 78.0101 171.749C72.6132 173.878 67.3798 174.943 62.31 174.943ZM0 81.3286V49.1409H85.3696V81.3286H0Z" fill="url(#paint1_linear_1027_8967)"/>
<path d="M62.31 174.943C47.7546 174.943 36.879 171.503 29.6831 164.623C22.6507 157.58 19.1346 147.588 19.1346 134.647V10.8105H57.4037V125.065C57.4037 129.979 58.3031 133.582 60.1021 135.876C61.9011 138.169 64.6813 139.316 68.4428 139.316C69.9147 139.316 71.6319 138.988 73.5944 138.333C75.557 137.514 77.3559 136.531 78.9914 135.384L92.2384 163.395C88.3133 166.671 83.5706 169.456 78.0101 171.749C72.6132 173.878 67.3798 174.943 62.31 174.943ZM0 81.3286V49.1409H85.3696V81.3286H0Z" fill="black"/>
<path d="M104.328 176V0H142.597V176H104.328Z" fill="url(#paint2_linear_1027_8967)"/>
<path d="M104.328 176V0H142.597V176H104.328Z" fill="black"/>
<path d="M187.99 94.8434C181.775 94.8434 176.46 92.632 172.044 88.2093C167.629 83.7865 165.421 78.4629 165.421 72.2383C165.421 66.1775 167.629 60.9357 172.044 56.513C176.46 52.0903 181.775 49.8789 187.99 49.8789C194.041 49.8789 199.274 52.0903 203.69 56.513C208.106 60.9357 210.313 66.1775 210.313 72.2383C210.313 78.4629 208.106 83.7865 203.69 88.2093C199.274 92.632 194.041 94.8434 187.99 94.8434ZM155.854 175.977L171.554 115.042H210.313L184.31 175.977H155.854Z" fill="url(#paint3_linear_1027_8967)"/>
<path d="M187.99 94.8434C181.775 94.8434 176.46 92.632 172.044 88.2093C167.629 83.7865 165.421 78.4629 165.421 72.2383C165.421 66.1775 167.629 60.9357 172.044 56.513C176.46 52.0903 181.775 49.8789 187.99 49.8789C194.041 49.8789 199.274 52.0903 203.69 56.513C208.106 60.9357 210.313 66.1775 210.313 72.2383C210.313 78.4629 208.106 83.7865 203.69 88.2093C199.274 92.632 194.041 94.8434 187.99 94.8434ZM155.854 175.977L171.554 115.042H210.313L184.31 175.977H155.854Z" fill="black"/>
<path d="M490.764 175.999L530.996 49.1406H570.001L528.052 175.999H490.764ZM410.055 175.999L448.325 49.1406H480.951L443.418 175.999H410.055ZM405.885 175.999L364.182 49.1406H403.187L441.21 175.999H405.885ZM490.519 175.999L453.476 49.1406H486.103L524.127 175.999H490.519Z" fill="url(#paint4_linear_1027_8967)"/>
<path d="M490.764 175.999L530.996 49.1406H570.001L528.052 175.999H490.764ZM410.055 175.999L448.325 49.1406H480.951L443.418 175.999H410.055ZM405.885 175.999L364.182 49.1406H403.187L441.21 175.999H405.885ZM490.519 175.999L453.476 49.1406H486.103L524.127 175.999H490.519Z" fill="black"/>
</g>
<defs>
<linearGradient id="paint0_linear_1027_8967" x1="226.584" y1="30.182" x2="226.584" y2="184.714" gradientUnits="userSpaceOnUse">
<stop stop-color="#002FA7" stop-opacity="0.4"/>
<stop offset="1" stop-color="#C6C6D5" stop-opacity="0.2"/>
</linearGradient>
<linearGradient id="paint1_linear_1027_8967" x1="226.584" y1="30.182" x2="226.584" y2="184.714" gradientUnits="userSpaceOnUse">
<stop stop-color="#002FA7" stop-opacity="0.4"/>
<stop offset="1" stop-color="#C6C6D5" stop-opacity="0.2"/>
</linearGradient>
<linearGradient id="paint2_linear_1027_8967" x1="226.584" y1="30.182" x2="226.584" y2="184.714" gradientUnits="userSpaceOnUse">
<stop stop-color="#002FA7" stop-opacity="0.4"/>
<stop offset="1" stop-color="#C6C6D5" stop-opacity="0.2"/>
</linearGradient>
<linearGradient id="paint3_linear_1027_8967" x1="226.584" y1="30.182" x2="226.584" y2="184.714" gradientUnits="userSpaceOnUse">
<stop stop-color="#002FA7" stop-opacity="0.4"/>
<stop offset="1" stop-color="#C6C6D5" stop-opacity="0.2"/>
</linearGradient>
<linearGradient id="paint4_linear_1027_8967" x1="226.584" y1="30.182" x2="226.584" y2="184.714" gradientUnits="userSpaceOnUse">
<stop stop-color="#002FA7" stop-opacity="0.4"/>
<stop offset="1" stop-color="#C6C6D5" stop-opacity="0.2"/>
</linearGradient>
<clipPath id="clip0_1027_8967">
<rect width="570" height="176" fill="white"/>
</clipPath>
</defs>
</svg>
